<mxfile host="app.diagrams.net" modified="2021-07-27T22:23:21.878Z" agent="5.0 (X11; Linux x86_64) AppleWebKit/537.36 (KHTML, like Gecko) Chrome/92.0.4515.107 Safari/537.36" etag="WRtVL3KotOVV4ulFGaMt" version="14.8.6" type="github">
  <diagram id="4tkHtGuFGiD6dUaCuHIw" name="Page-1">
    <mxGraphModel dx="579" dy="1121" grid="1" gridSize="10" guides="1" tooltips="1" connect="1" arrows="1" fold="1" page="1" pageScale="1" pageWidth="827" pageHeight="1169" math="0" shadow="0">
      <root>
        <mxCell id="0" />
        <mxCell id="1" parent="0" />
        <mxCell id="1aMg-3rMD4sG1Mxqv6Jb-1" value="Command" style="rounded=0;whiteSpace=wrap;html=1;fillColor=#dae8fc;strokeColor=#6c8ebf;flipH=0;" vertex="1" parent="1">
          <mxGeometry x="80" y="30" width="110" height="60" as="geometry" />
        </mxCell>
        <mxCell id="1aMg-3rMD4sG1Mxqv6Jb-2" value="Event" style="rounded=0;whiteSpace=wrap;html=1;fillColor=#ffe6cc;strokeColor=#d79b00;flipH=0;" vertex="1" parent="1">
          <mxGeometry x="414" y="30" width="110" height="60" as="geometry" />
        </mxCell>
        <mxCell id="1aMg-3rMD4sG1Mxqv6Jb-3" value="Policy" style="rhombus;whiteSpace=wrap;html=1;fillColor=#e1d5e7;strokeColor=#9673a6;flipH=0;" vertex="1" parent="1">
          <mxGeometry x="320" y="20" width="80" height="80" as="geometry" />
        </mxCell>
        <mxCell id="1aMg-3rMD4sG1Mxqv6Jb-4" value="Actor" style="shape=umlActor;verticalLabelPosition=bottom;verticalAlign=top;html=1;outlineConnect=0;flipH=0;" vertex="1" parent="1">
          <mxGeometry x="30" y="30" width="30" height="60" as="geometry" />
        </mxCell>
        <mxCell id="1aMg-3rMD4sG1Mxqv6Jb-5" value="Hotspot" style="rounded=0;whiteSpace=wrap;html=1;fillColor=#f8cecc;strokeColor=#b85450;flipH=0;" vertex="1" parent="1">
          <mxGeometry x="540" y="30" width="110" height="60" as="geometry" />
        </mxCell>
        <mxCell id="1aMg-3rMD4sG1Mxqv6Jb-6" value="Business rule" style="rounded=0;whiteSpace=wrap;html=1;fillColor=#fff2cc;strokeColor=#d6b656;flipH=0;" vertex="1" parent="1">
          <mxGeometry x="200" y="30" width="110" height="60" as="geometry" />
        </mxCell>
        <mxCell id="1aMg-3rMD4sG1Mxqv6Jb-7" value="" style="endArrow=none;html=1;" edge="1" parent="1">
          <mxGeometry width="50" height="50" relative="1" as="geometry">
            <mxPoint x="4" y="130" as="sourcePoint" />
            <mxPoint x="824" y="130" as="targetPoint" />
          </mxGeometry>
        </mxCell>
        <mxCell id="1aMg-3rMD4sG1Mxqv6Jb-9" value="Tone is adjusted" style="rounded=0;whiteSpace=wrap;html=1;fillColor=#fff2cc;strokeColor=#d6b656;flipH=0;" vertex="1" parent="1">
          <mxGeometry x="350" y="200" width="110" height="60" as="geometry" />
        </mxCell>
        <mxCell id="1aMg-3rMD4sG1Mxqv6Jb-10" value="Right pickup is chosen" style="rounded=0;whiteSpace=wrap;html=1;fillColor=#fff2cc;strokeColor=#d6b656;flipH=0;" vertex="1" parent="1">
          <mxGeometry x="350" y="280" width="110" height="60" as="geometry" />
        </mxCell>
        <mxCell id="1aMg-3rMD4sG1Mxqv6Jb-11" value="Guitar is in tune" style="rounded=0;whiteSpace=wrap;html=1;fillColor=#fff2cc;strokeColor=#d6b656;flipH=0;" vertex="1" parent="1">
          <mxGeometry x="350" y="360" width="110" height="60" as="geometry" />
        </mxCell>
        <mxCell id="1aMg-3rMD4sG1Mxqv6Jb-13" value="Play rhythm part" style="rounded=0;whiteSpace=wrap;html=1;fillColor=#dae8fc;strokeColor=#6c8ebf;flipH=0;" vertex="1" parent="1">
          <mxGeometry x="90" y="240" width="110" height="60" as="geometry" />
        </mxCell>
        <mxCell id="1aMg-3rMD4sG1Mxqv6Jb-14" value="Play solo" style="rounded=0;whiteSpace=wrap;html=1;fillColor=#dae8fc;strokeColor=#6c8ebf;flipH=0;" vertex="1" parent="1">
          <mxGeometry x="90" y="330" width="110" height="60" as="geometry" />
        </mxCell>
        <mxCell id="1aMg-3rMD4sG1Mxqv6Jb-15" value="Rhythm part played" style="rounded=0;whiteSpace=wrap;html=1;fillColor=#ffe6cc;strokeColor=#d79b00;flipH=0;" vertex="1" parent="1">
          <mxGeometry x="490" y="240" width="110" height="60" as="geometry" />
        </mxCell>
        <mxCell id="1aMg-3rMD4sG1Mxqv6Jb-16" value="Solo played" style="rounded=0;whiteSpace=wrap;html=1;fillColor=#ffe6cc;strokeColor=#d79b00;flipH=0;" vertex="1" parent="1">
          <mxGeometry x="490" y="330" width="110" height="60" as="geometry" />
        </mxCell>
        <mxCell id="1aMg-3rMD4sG1Mxqv6Jb-17" value="Band&#39;s specific tone requirements" style="rhombus;whiteSpace=wrap;html=1;fillColor=#e1d5e7;strokeColor=#9673a6;flipH=0;" vertex="1" parent="1">
          <mxGeometry x="200" y="140" width="140" height="140" as="geometry" />
        </mxCell>
        <mxCell id="1aMg-3rMD4sG1Mxqv6Jb-18" value="Guitar player" style="shape=umlActor;verticalLabelPosition=bottom;verticalAlign=top;html=1;outlineConnect=0;flipH=0;" vertex="1" parent="1">
          <mxGeometry x="20" y="240" width="30" height="60" as="geometry" />
        </mxCell>
        <mxCell id="1aMg-3rMD4sG1Mxqv6Jb-19" value="Guitar player" style="shape=umlActor;verticalLabelPosition=bottom;verticalAlign=top;html=1;outlineConnect=0;flipH=0;" vertex="1" parent="1">
          <mxGeometry x="20" y="330" width="30" height="60" as="geometry" />
        </mxCell>
        <mxCell id="1aMg-3rMD4sG1Mxqv6Jb-21" value="Read model" style="rounded=0;whiteSpace=wrap;html=1;fillColor=#d5e8d4;strokeColor=#82b366;flipH=0;" vertex="1" parent="1">
          <mxGeometry x="670" y="30" width="110" height="60" as="geometry" />
        </mxCell>
      </root>
    </mxGraphModel>
  </diagram>
</mxfile>
